PathFileType	4	(X/Y/Z)	D:\Share\Shared_Data\Ergonomics\Sit To Stand Pertubation\S0\Free STS.trc
DataRate	CameraRate	NumFrames	NumMarkers	Units	OrigDataRate	OrigDataStartFrame	OrigNumFrames	
100	100	9	18	m	100	4006	211
Frame#	Time	R_Toe			R_ASIS			R_Pelvis			V_Sacral			L_Pelvis			L_ASIS			Clavical			R_Acromium			L_Acromium			Sternum			Torso			R_Thigh_Med			R_Thigh_Lat			R_Thigh			R_Shank_Med			R_Shank_Lat			R_Shank			R_Heel			
		X1	Y1	Z1	X2	Y2	Z2	X3	Y3	Z3	X4	Y4	Z4	X5	Y5	Z5	X6	Y6	Z6	X7	Y7	Z7	X8	Y8	Z8	X9	Y9	Z9	X10	Y10	Z10	X11	Y11	Z11	X12	Y12	Z12	X13	Y13	Z13	X14	Y14	Z14	X15	Y15	Z15	X16	Y16	Z16	X17	Y17	Z17	X18	Y18	Z18	

4006	26.48	0.380189	0.044812714	0.14078201	0.30498779	0.98246313	0.15730408	0.18823959	1.0184653	0.20382213	0.065000648	1.0344967	-0.024259939	0.20134206	1.0032883	-0.20816937	0.31268375	0.96388611	-0.15817598	0.4247572	1.3921106	-0.007113678	0.35637582	1.4702894	0.13280711	0.34732727	1.4770693	-0.15403917	0.43950928	1.2952698	-0.024541815	0.42022122	1.3480371	-0.13022168	0.32700305	0.48662143	0.052173851	0.32393588	0.51101505	0.18110486	0.3812113	0.6520672	0.11318082	0.25505626	0.098726532	0.10128977	0.1986859	0.091000145	0.19134354	0.26067023	0.3139462	0.20385706	0.15596606	0.04662188	0.14935974
4007	26.49	0.38016852	0.044813217	0.14084537	0.30839346	0.98472974	0.15734418	0.191119	1.0196012	0.20390678	0.067733925	1.0350706	-0.024021261	0.2039633	1.0046724	-0.20800615	0.31573395	0.96631781	-0.15828128	0.42256625	1.3964574	-0.0070195041	0.35334238	1.4738848	0.13307066	0.34398557	1.4805638	-0.15399258	0.43850989	1.2998002	-0.024519093	0.4184238	1.352359	-0.13023289	0.32576285	0.48685202	0.051816833	0.32284381	0.51142566	0.18063321	0.38151056	0.65185126	0.11276013	0.25494913	0.098764458	0.10128904	0.19855086	0.091002693	0.19127873	0.25980399	0.31417078	0.20362396	0.15599564	0.046584366	0.14934404
4008	26.5	0.38014822	0.044815041	0.14090656	0.31174612	0.98690393	0.15741147	0.19395828	1.0206374	0.20397821	0.070427475	1.0355522	-0.023792278	0.20656436	1.0059837	-0.20783777	0.31875446	0.96868805	-0.1583717	0.42034772	1.4006184	-0.0069248209	0.35031537	1.477295	0.13333936	0.34062897	1.4838583	-0.15393483	0.43745959	1.3041603	-0.024492939	0.4165864	1.3564999	-0.1302426	0.32455197	0.48709647	0.051452351	0.32173346	0.5118298	0.18016199	0.38179437	0.65162097	0.11234325	0.25483972	0.098802879	0.10129609	0.19841663	0.091004395	0.19121362	0.25892169	0.31439532	0.20339069	0.1560199	0.046544827	0.14932753
4009	26.51	0.38012885	0.044818096	0.14096523	0.31504938	0.98898297	0.1575022	0.19675771	1.0215702	0.20403587	0.073076508	1.0359404	-0.023571663	0.20913879	1.007225	-0.20766582	0.32174121	0.97099658	-0.15845332	0.41810239	1.4045908	-0.0068273315	0.34730078	1.480517	0.13361412	0.33726562	1.4869558	-0.15386711	0.43636304	1.3083462	-0.024463615	0.41471033	1.3604543	-0.13025188	0.3233746	0.48735043	0.051082626	0.3206178	0.51222418	0.17969212	0.38206628	0.65137378	0.11193241	0.25473306	0.098843231	0.10130839	0.19828508	0.091006996	0.19114748	0.25803433	0.31461963	0.20315633	0.15603539	0.04650745	0.14930951
4010	26.52	0.3801116	0.044821804	0.14102104	0.31830066	0.99096301	0.15761182	0.1995145	1.0223969	0.20408176	0.07567675	1.036234	-0.02335751	0.2116801	1.0083976	-0.20749152	0.32469058	0.97324164	-0.15853297	0.41583289	1.4083716	-0.0067249479	0.34430368	1.4835485	0.13389551	0.33390356	1.48986	-0.1537892	0.43522574	1.3123538	-0.024430119	0.412797	1.3642174	-0.1302598	0.32223154	0.48760843	0.05071006	0.31951114	0.51260638	0.1792229	0.38232889	0.65110889	0.111529	0.25463164	0.098885727	0.10132221	0.19815767	0.091012001	0.19107819	0.25715356	0.31484506	0.20291977	0.15604318	0.046475151	0.14928868
4011	26.53	0.38009802	0.044825352	0.14107385	0.32149155	0.99283795	0.15773502	0.2022234	1.0231171	0.20411938	0.078224274	1.036433	-0.023147163	0.21418211	1.0094995	-0.20731512	0.32759909	0.97541968	-0.15861746	0.41354431	1.4119569	-0.0066161704	0.34132819	1.4863887	0.13418372	0.33055051	1.4925725	-0.15369957	0.43405334	1.3161793	-0.024390287	0.41084824	1.3677848	-0.13026379	0.32112268	0.4878656	0.050337856	0.31842667	0.51297491	0.17875262	0.38258325	0.65082812	0.11113298	0.25453621	0.098929482	0.1013334	0.19803516	0.091020187	0.19100301	0.25628946	0.31507373	0.20268068	0.15604666	0.046449554	0.14926375
4012	26.54	0.38008948	0.044828022	0.14112383	0.32460806	0.99459888	0.157866	0.20487764	1.0237328	0.20415332	0.080715424	1.036537	-0.022937479	0.21663956	1.0105251	-0.2071358	0.33046332	0.97752515	-0.15871312	0.41124426	1.4153435	-0.0064999499	0.33837796	1.4890372	0.13447888	0.32721365	1.4950938	-0.15359595	0.43285117	1.3198182	-0.024341572	0.40886682	1.3711533	-0.13026013	0.32004715	0.48811884	0.049970303	0.31737329	0.5133291	0.17828058	0.38282812	0.65053687	0.11074374	0.25444653	0.098973045	0.1013388	0.19791768	0.091031204	0.19092049	0.25544814	0.31530707	0.2024406	0.15604932	0.046430706	0.14923415
4013	26.55	0.3800867	0.044829433	0.14117177	0.32763254	0.99623511	0.15799919	0.20746988	1.0242498	0.20418887	0.08314682	1.0365455	-0.022725672	0.21904851	1.0114666	-0.20695226	0.33327887	0.97954962	-0.15882523	0.40894171	1.4185293	-0.0063756256	0.33545673	1.4914946	0.13478122	0.3238989	1.4974221	-0.15347652	0.43162375	1.3232665	-0.02428211	0.40685773	1.3743209	-0.13024518	0.3190029	0.48836639	0.049612865	0.31635388	0.51366882	0.17780888	0.38306006	0.65024249	0.11036157	0.25436217	0.099015251	0.10133766	0.19780467	0.091043289	0.1908318	0.25463077	0.3155448	0.20220305	0.1560535	0.046416901	0.14920082
4014	26.56	0.38008908	0.044829769	0.14121939	0.33054779	0.99773914	0.15813048	0.20999367	1.0246758	0.20423093	0.085515411	1.036459	-0.022510332	0.22140736	1.0123151	-0.20676404	0.33603738	0.98148132	-0.15895761	0.40664587	1.4215122	-0.0062429981	0.33256903	1.4937617	0.13509096	0.32061124	1.4995563	-0.15334047	0.43037463	1.3265195	-0.024211397	0.40482889	1.3772869	-0.13021643	0.31798709	0.48860718	0.049272648	0.31536472	0.513995	0.17734369	0.38327481	0.64995349	0.10998866	0.2542825	0.099055771	0.1013326	0.19769501	0.091053711	0.19074112	0.25383368	0.315785	0.2019729	0.15605997	0.046405029	0.14916635
